# xmcd
#
# Track frame offsets:
#	150
#	34091
#	56180
#	91486
#
# Disc length: 1598 seconds
#
# Revision: 1
# Processed by: cddbd v1.5.2PL0 Copyright (c) Steve Scherf et al.
# Submitted via: audiograbber 1.83.01
#
DISCID=30063c04
DTITLE=Hexe Lilli - Lilli fliegt zum Mond
DYEAR=2010
DGENRE=Hörspiel
TTITLE0=Lilli fliegt zum Mond 1
TTITLE1=Lilli fliegt zum Mond 2
TTITLE2=Lilli fliegt zum Mond 3
TTITLE3=Lilli fliegt zum Mond 4
EXTD=Wer war zuerst auf dem Mond: Mensch oder Drache? Weil Lilli und Hektor sic
EXTD=h nicht einigen können, reisen sie zu dem Tag zurück, als Neil Armstrong u
EXTD=nd Buzz Aldrin auf dem Mond landen. Leider müssen die beiden Astronauten f
EXTD=eststellen, dass dort bereits ein Mächen und ein Drache herumspazieren. Da
EXTD=s haben Lilli und Hektor nicht gewollt! Ein Vergesslichkeitszauber muss he
EXTD=r!
EXTT0=
EXTT1=
EXTT2=
EXTT3=
PLAYORDER=
